<?xml version="1.0" encoding="iso-8859-1"?>
<!-- Generator: Adobe Illustrator 19.0.0, SVG Export Plug-In . SVG Version: 6.00 Build 0)  -->
<svg fill="#ccc" version="1.1" id="Capa_1" xmlns="http://www.w3.org/2000/svg" xmlns:xlink="http://www.w3.org/1999/xlink" x="0px" y="0px"
	 viewBox="0 0 480 480" style="enable-background:new 0 0 480 480;" xml:space="preserve">
<g>
	<g>
		<path d="M440,8H40C17.92,8.026,0.026,25.92,0,48v272c0.026,22.08,17.92,39.974,40,40h144v64h-24c-4.418,0-8,3.582-8,8v24h-16v16
			h208v-16h-16v-24c0-4.418-3.582-8-8-8h-24v-64h144c22.08-0.026,39.974-17.92,40-40V48C479.974,25.92,462.08,8.026,440,8z M312,440
			v16H168v-16H312z M200,424v-64h80v64H200z M464,320c0,13.255-10.745,24-24,24H40c-13.255,0-24-10.745-24-24v-24h448V320z M464,280
			H16V48c0-13.255,10.745-24,24-24h400c13.255,0,24,10.745,24,24V280z"/>
	</g>
</g>
<g>
	<g>
		<path d="M328,128h-20.176c-0.847-2.377-1.816-4.708-2.904-6.984l14.28-14.272c3.123-3.124,3.123-8.188,0-11.312L296.568,72.8
			c-3.124-3.123-8.188-3.123-11.312,0l-14.272,14.264c-2.277-1.081-4.608-2.045-6.984-2.888V64c0-4.418-3.582-8-8-8h-32
			c-4.418,0-8,3.582-8,8v20.176c-2.376,0.846-4.707,1.813-6.984,2.896L194.744,72.8c-3.124-3.123-8.188-3.123-11.312,0L160.8,95.432
			c-3.123,3.124-3.123,8.188,0,11.312l14.272,14.272c-1.088,2.276-2.057,4.607-2.904,6.984H152c-4.418,0-8,3.582-8,8v32
			c0,4.418,3.582,8,8,8h20.176c0.847,2.377,1.816,4.708,2.904,6.984l-14.28,14.272c-3.123,3.124-3.123,8.188,0,11.312l22.632,22.632
			c3.124,3.123,8.188,3.123,11.312,0l14.264-14.264c2.28,1.084,4.614,2.05,6.992,2.896V240c0,4.418,3.582,8,8,8h32
			c4.418,0,8-3.582,8-8v-20.176c2.378-0.846,4.712-1.812,6.992-2.896l14.264,14.272c3.174,3.001,8.138,3.001,11.312,0l22.632-22.632
			c3.123-3.124,3.123-8.188,0-11.312l-14.272-14.272c1.085-2.276,2.052-4.608,2.896-6.984H328c4.418,0,8-3.582,8-8v-32
			C336,131.582,332.418,128,328,128z M320,160.008h-18.096c-3.644,0.005-6.825,2.471-7.736,6c-1.311,5.055-3.322,9.902-5.976,14.4
			c-1.856,3.146-1.345,7.148,1.24,9.728l12.8,12.8l-11.312,11.312l-12.8-12.8c-2.581-2.583-6.584-3.09-9.728-1.232
			c-4.498,2.65-9.345,4.656-14.4,5.96c-3.531,0.912-5.999,4.097-6,7.744V232H232v-18.096c-0.001-3.647-2.469-6.832-6-7.744
			c-5.055-1.304-9.902-3.31-14.4-5.96c-3.144-1.858-7.147-1.351-9.728,1.232l-12.8,12.8L177.76,202.92l12.8-12.8
			c2.585-2.58,3.096-6.582,1.24-9.728c-2.654-4.498-4.665-9.345-5.976-14.4c-0.911-3.529-4.092-5.995-7.736-6H160V144h18.096
			c3.644-0.005,6.825-2.471,7.736-6c1.311-5.055,3.322-9.902,5.976-14.4c1.856-3.146,1.345-7.148-1.24-9.728l-12.8-12.8
			L189.08,89.76l12.8,12.8c2.581,2.583,6.584,3.09,9.728,1.232c4.499-2.648,9.346-4.654,14.4-5.96c3.531-0.912,5.999-4.097,6-7.744
			V72h16v18.096c0.001,3.647,2.469,6.832,6,7.744c5.054,1.306,9.901,3.312,14.4,5.96c3.144,1.858,7.147,1.351,9.728-1.232l12.8-12.8
			l11.312,11.312l-12.8,12.8c-2.585,2.579-3.096,6.582-1.24,9.728c2.654,4.498,4.665,9.345,5.976,14.4
			c0.911,3.529,4.092,5.995,7.736,6H320V160.008z"/>
	</g>
</g>
<g>
	<g>
		<path d="M240,112c-22.091,0-40,17.909-40,40c0.026,22.08,17.92,39.974,40,40c22.091,0,40-17.909,40-40S262.091,112,240,112z
			 M240,176c-13.255,0-24-10.745-24-24s10.745-24,24-24s24,10.745,24,24S253.255,176,240,176z"/>
	</g>
</g>
<g>
</g>
<g>
</g>
<g>
</g>
<g>
</g>
<g>
</g>
<g>
</g>
<g>
</g>
<g>
</g>
<g>
</g>
<g>
</g>
<g>
</g>
<g>
</g>
<g>
</g>
<g>
</g>
<g>
</g>
</svg>
