<svg xmlns="http://www.w3.org/2000/svg" width="50.678" height="29.933" viewBox="0 0 50.678 29.933"><defs></defs><g transform="translate(-220.659 -100.698)"><path fill="#ffffff" d="M49.868,103.2l-1.66-1.672a2.779,2.779,0,0,0-3.921,0L25.35,120.466,6.392,101.507a2.779,2.779,0,0,0-3.921,0l-1.66,1.661a2.775,2.775,0,0,0,0,3.92l22.572,22.653a2.834,2.834,0,0,0,1.966.889h.009a2.833,2.833,0,0,0,1.96-.889L49.868,107.15a2.8,2.8,0,0,0,.81-1.98A2.772,2.772,0,0,0,49.868,103.2Z" transform="translate(220.659)"/></g></svg>